<svg xmlns="http://www.w3.org/2000/svg" xmlns:xlink="http://www.w3.org/1999/xlink" version="1.1" width="1000" height="1000" viewBox="0 0 1000 1000" xml:space="preserve">
<desc>Created with Fabric.js 3.5.0</desc>
<defs>
</defs>
<rect x="0" y="0" width="100%" height="100%" fill="#ffffff"/>
<g transform="matrix(1 0 0 1 500 485.58)" style="" id="984973">
		
<path xml:space="preserve" font-family="Quicksand" font-size="72" font-weight="bold" style="stroke: none; stroke-width: 0; stroke-dasharray: none; stroke-linecap: butt; stroke-dashoffset: 0; stroke-linejoin: miter; stroke-miterlimit: 4; is-custom-font: none; font-file-url: none; fill: rgb(10,26,105); fill-rule: nonzero; opacity: 1; white-space: pre;" d="M-144.94-27.78L-126.79-27.78Q-119.88-27.78-116.50-24.54Q-113.11-21.30-113.11-14.97L-113.11-14.97Q-113.11-11.58-114.77-9.03Q-116.42-6.47-119.66-5.07Q-122.90-3.66-127.66-3.66L-127.66-3.66L-127.37-6.90Q-125.14-6.90-122.26-6.29Q-119.38-5.68-116.68-4.13Q-113.98-2.58-112.21 0.19Q-110.45 2.96-110.45 7.28L-110.45 7.28Q-110.45 12.03-112.00 15.06Q-113.54 18.08-116.06 19.74Q-118.58 21.39-121.46 22.01Q-124.34 22.62-127.01 22.62L-127.01 22.62L-144.94 22.62Q-146.81 22.62-148.07 21.36Q-149.33 20.10-149.33 18.23L-149.33 18.23L-149.33-23.39Q-149.33-25.26-148.07-26.52Q-146.81-27.78-144.94-27.78L-144.94-27.78ZM-128.09-19.29L-128.09-19.29L-140.90-19.29L-139.97-20.44L-139.97-7.41L-140.83-8.05L-127.87-8.05Q-125.78-8.05-124.13-9.42Q-122.47-10.79-122.47-13.38L-122.47-13.38Q-122.47-16.48-124.02-17.88Q-125.57-19.29-128.09-19.29ZM-127.51 0.44L-127.51 0.44L-140.62 0.44L-139.97-0.13L-139.97 15.06L-140.69 14.34L-127.01 14.34Q-123.70 14.34-121.75 12.57Q-119.81 10.81-119.81 7.28L-119.81 7.28Q-119.81 4.04-121.10 2.60Q-122.40 1.16-124.20 0.80Q-126 0.44-127.51 0.44ZM-93.74-26.27L-93.74 18.23Q-93.74 20.10-95.00 21.36Q-96.26 22.62-98.14 22.62L-98.14 22.62Q-99.94 22.62-101.16 21.36Q-102.38 20.10-102.38 18.23L-102.38 18.23L-102.38-26.27Q-102.38-28.14-101.12-29.40Q-99.86-30.66-97.99-30.66L-97.99-30.66Q-96.12-30.66-94.93-29.40Q-93.74-28.14-93.74-26.27L-93.74-26.27ZM-47.38 3.39L-47.38 3.39Q-47.38 9.30-50.00 13.80Q-52.63 18.30-57.06 20.82Q-61.49 23.34-66.96 23.34L-66.96 23.34Q-72.43 23.34-76.86 20.82Q-81.29 18.30-83.92 13.80Q-86.54 9.30-86.54 3.39L-86.54 3.39Q-86.54-2.51-83.92-7.01Q-81.29-11.51-76.86-14.07Q-72.43-16.62-66.96-16.62L-66.96-16.62Q-61.49-16.62-57.06-14.07Q-52.63-11.51-50.00-7.01Q-47.38-2.51-47.38 3.39ZM-56.02 3.39L-56.02 3.39Q-56.02-0.28-57.49-2.98Q-58.97-5.68-61.45-7.19Q-63.94-8.70-66.96-8.70L-66.96-8.70Q-69.98-8.70-72.47-7.19Q-74.95-5.68-76.43-2.98Q-77.90-0.28-77.90 3.39L-77.90 3.39Q-77.90 6.99-76.43 9.69Q-74.95 12.39-72.47 13.91Q-69.98 15.42-66.96 15.42L-66.96 15.42Q-63.94 15.42-61.45 13.91Q-58.97 12.39-57.49 9.69Q-56.02 6.99-56.02 3.39ZM-24.55-16.62L-24.55-16.62Q-21.53-16.62-19.01-15.69Q-16.49-14.75-14.65-13.31Q-12.82-11.87-11.77-10.39Q-10.73-8.92-10.73-7.91L-10.73-7.91L-12.60-6.97L-12.60-12.23Q-12.60-14.10-11.38-15.36Q-10.15-16.62-8.28-16.62L-8.28-16.62Q-6.41-16.62-5.18-15.40Q-3.96-14.17-3.96-12.23L-3.96-12.23L-3.96 19.81Q-3.96 26.07-6.66 29.85Q-9.36 33.63-13.75 35.33Q-18.14 37.02-23.18 37.02L-23.18 37.02Q-24.62 37.02-26.93 36.66Q-29.23 36.30-31.32 35.79Q-33.41 35.29-34.49 34.86L-34.49 34.86Q-36.65 33.92-37.48 32.52Q-38.30 31.11-37.80 29.53L-37.80 29.53Q-37.15 27.44-35.71 26.69Q-34.27 25.93-32.69 26.51L-32.69 26.51Q-31.97 26.72-30.31 27.37Q-28.66 28.02-26.68 28.56Q-24.70 29.10-23.18 29.10L-23.18 29.10Q-17.78 29.10-15.19 26.94Q-12.60 24.78-12.60 20.96L-12.60 20.96L-12.60 14.70L-11.74 15.35Q-11.74 16.28-12.71 17.61Q-13.68 18.95-15.37 20.24Q-17.06 21.54-19.37 22.44Q-21.67 23.34-24.26 23.34L-24.26 23.34Q-29.38 23.34-33.48 20.78Q-37.58 18.23-39.96 13.73Q-42.34 9.23-42.34 3.39L-42.34 3.39Q-42.34-2.51-39.96-7.01Q-37.58-11.51-33.55-14.07Q-29.52-16.62-24.55-16.62ZM-23.18-8.70L-23.18-8.70Q-26.42-8.70-28.87-7.12Q-31.32-5.53-32.69-2.80Q-34.06-0.06-34.06 3.39L-34.06 3.39Q-34.06 6.78-32.69 9.51Q-31.32 12.25-28.87 13.83Q-26.42 15.42-23.18 15.42L-23.18 15.42Q-19.87 15.42-17.42 13.83Q-14.98 12.25-13.61 9.51Q-12.24 6.78-12.24 3.39L-12.24 3.39Q-12.24-0.06-13.61-2.80Q-14.98-5.53-17.42-7.12Q-19.87-8.70-23.18-8.70ZM21.02-16.62L21.02-16.62Q24.05-16.62 26.57-15.69Q29.09-14.75 30.92-13.31Q32.76-11.87 33.80-10.39Q34.85-8.92 34.85-7.91L34.85-7.91L32.98-6.97L32.98-12.23Q32.98-14.10 34.20-15.36Q35.42-16.62 37.30-16.62L37.30-16.62Q39.17-16.62 40.39-15.40Q41.62-14.17 41.62-12.23L41.62-12.23L41.62 19.81Q41.62 26.07 38.92 29.85Q36.22 33.63 31.82 35.33Q27.43 37.02 22.39 37.02L22.39 37.02Q20.95 37.02 18.65 36.66Q16.34 36.30 14.26 35.79Q12.17 35.29 11.09 34.86L11.09 34.86Q8.93 33.92 8.10 32.52Q7.27 31.11 7.78 29.53L7.78 29.53Q8.42 27.44 9.86 26.69Q11.30 25.93 12.89 26.51L12.89 26.51Q13.61 26.72 15.26 27.37Q16.92 28.02 18.90 28.56Q20.88 29.10 22.39 29.10L22.39 29.10Q27.79 29.10 30.38 26.94Q32.98 24.78 32.98 20.96L32.98 20.96L32.98 14.70L33.84 15.35Q33.84 16.28 32.87 17.61Q31.90 18.95 30.20 20.24Q28.51 21.54 26.21 22.44Q23.90 23.34 21.31 23.34L21.31 23.34Q16.20 23.34 12.10 20.78Q7.99 18.23 5.62 13.73Q3.24 9.23 3.24 3.39L3.24 3.39Q3.24-2.51 5.62-7.01Q7.99-11.51 12.02-14.07Q16.06-16.62 21.02-16.62ZM22.39-8.70L22.39-8.70Q19.15-8.70 16.70-7.12Q14.26-5.53 12.89-2.80Q11.52-0.06 11.52 3.39L11.52 3.39Q11.52 6.78 12.89 9.51Q14.26 12.25 16.70 13.83Q19.15 15.42 22.39 15.42L22.39 15.42Q25.70 15.42 28.15 13.83Q30.60 12.25 31.97 9.51Q33.34 6.78 33.34 3.39L33.34 3.39Q33.34-0.06 31.97-2.80Q30.60-5.53 28.15-7.12Q25.70-8.70 22.39-8.70ZM67.32 23.34L67.32 23.34Q61.20 23.34 56.70 20.78Q52.20 18.23 49.79 13.83Q47.38 9.44 47.38 3.90L47.38 3.90Q47.38-2.58 50.00-7.15Q52.63-11.73 56.88-14.17Q61.13-16.62 65.88-16.62L65.88-16.62Q69.55-16.62 72.83-15.11Q76.10-13.60 78.62-10.97Q81.14-8.34 82.62-4.89Q84.10-1.43 84.10 2.46L84.10 2.46Q84.02 4.19 82.73 5.27Q81.43 6.35 79.70 6.35L79.70 6.35L52.20 6.35L50.04-0.85L76.46-0.85L74.88 0.59L74.88-1.36Q74.74-3.45 73.40-5.10Q72.07-6.76 70.09-7.73Q68.11-8.70 65.88-8.70L65.88-8.70Q63.72-8.70 61.85-8.13Q59.98-7.55 58.61-6.18Q57.24-4.81 56.45-2.51Q55.66-0.21 55.66 3.32L55.66 3.32Q55.66 7.21 57.28 9.91Q58.90 12.61 61.45 14.01Q64.01 15.42 66.89 15.42L66.89 15.42Q69.55 15.42 71.14 14.99Q72.72 14.55 73.69 13.94Q74.66 13.33 75.46 12.90L75.46 12.90Q76.75 12.25 77.90 12.25L77.90 12.25Q79.49 12.25 80.53 13.33Q81.58 14.41 81.58 15.85L81.58 15.85Q81.58 17.79 79.56 19.38L79.56 19.38Q77.69 20.96 74.30 22.15Q70.92 23.34 67.32 23.34ZM95.62 22.62L95.62 22.62Q93.74 22.62 92.52 21.36Q91.30 20.10 91.30 18.23L91.30 18.23L91.30-11.51Q91.30-13.38 92.52-14.64Q93.74-15.90 95.62-15.90L95.62-15.90Q97.49-15.90 98.71-14.64Q99.94-13.38 99.94-11.51L99.94-11.51L99.94-4.74L99.43-9.57Q100.22-11.29 101.48-12.63Q102.74-13.96 104.33-14.86Q105.91-15.76 107.71-16.19Q109.51-16.62 111.31-16.62L111.31-16.62Q113.47-16.62 114.95-15.40Q116.42-14.17 116.42-12.52L116.42-12.52Q116.42-10.14 115.20-9.10Q113.98-8.05 112.54-8.05L112.54-8.05Q111.17-8.05 110.05-8.56Q108.94-9.06 107.50-9.06L107.50-9.06Q106.20-9.06 104.87-8.45Q103.54-7.84 102.42-6.54Q101.30-5.25 100.62-3.34Q99.94-1.43 99.94 1.16L99.94 1.16L99.94 18.23Q99.94 20.10 98.71 21.36Q97.49 22.62 95.62 22.62ZM120.31 16.64L120.31 16.64Q119.59 15.63 119.66 14.05Q119.74 12.47 121.54 11.31L121.54 11.31Q122.69 10.59 123.98 10.70Q125.28 10.81 126.50 12.03L126.50 12.03Q128.59 14.12 130.90 15.27Q133.20 16.43 136.66 16.43L136.66 16.43Q137.74 16.35 139.03 16.10Q140.33 15.85 141.30 14.95Q142.27 14.05 142.27 12.18L142.27 12.18Q142.27 10.59 141.19 9.66Q140.11 8.72 138.35 8.07Q136.58 7.43 134.42 6.85L134.42 6.85Q132.19 6.20 129.85 5.41Q127.51 4.62 125.57 3.36Q123.62 2.10 122.40 0.01Q121.18-2.08 121.18-5.25L121.18-5.25Q121.18-8.85 123.19-11.37Q125.21-13.89 128.41-15.25Q131.62-16.62 135.14-16.62L135.14-16.62Q137.38-16.62 139.82-16.08Q142.27-15.54 144.50-14.35Q146.74-13.17 148.25-11.22L148.25-11.22Q149.04-10.14 149.18-8.63Q149.33-7.12 147.82-5.89L147.82-5.89Q146.74-5.03 145.30-5.14Q143.86-5.25 142.92-6.11L142.92-6.11Q141.70-7.69 139.64-8.63Q137.59-9.57 134.93-9.57L134.93-9.57Q133.85-9.57 132.59-9.31Q131.33-9.06 130.39-8.23Q129.46-7.41 129.46-5.61L129.46-5.61Q129.46-3.95 130.54-2.98Q131.62-2.01 133.45-1.39Q135.29-0.78 137.38-0.21L137.38-0.21Q139.54 0.37 141.77 1.16Q144.00 1.95 145.87 3.25Q147.74 4.55 148.90 6.60Q150.05 8.65 150.05 11.82L150.05 11.82Q150.05 15.49 147.89 18.08Q145.73 20.67 142.49 22.01Q139.25 23.34 135.86 23.34L135.86 23.34Q131.62 23.34 127.37 21.86Q123.12 20.39 120.31 16.64Z"/></g>
<g transform="matrix(1 0 0 1 547.9773 532.5)" style="" id="562935">
		
<path xml:space="preserve" font-family="Quicksand" font-size="40" font-weight="bold" style="stroke: none; stroke-width: 0; stroke-dasharray: none; stroke-linecap: butt; stroke-dashoffset: 0; stroke-linejoin: miter; stroke-miterlimit: 4; is-custom-font: none; font-file-url: none; fill: rgb(83,8,54); fill-rule: nonzero; opacity: 1; white-space: pre;" d="M77.81-15.47L77.81-15.47Q78.85-15.47 79.49-14.77Q80.13-14.07 80.13-13.03L80.13-13.03L80.13 1.45Q80.13 4.77 78.71 7.33Q77.29 9.89 74.81 11.33Q72.33 12.77 69.05 12.77L69.05 12.77Q65.77 12.77 63.27 11.33Q60.77 9.89 59.35 7.33Q57.93 4.77 57.93 1.45L57.93 1.45L57.93-13.03Q57.93-14.07 58.65-14.77Q59.37-15.47 60.49-15.47L60.49-15.47Q61.41-15.47 62.15-14.77Q62.89-14.07 62.89-13.03L62.89-13.03L62.89 1.45Q62.89 3.45 63.75 4.91Q64.61 6.37 66.03 7.17Q67.45 7.97 69.05 7.97L69.05 7.97Q70.77 7.97 72.25 7.17Q73.73 6.37 74.65 4.91Q75.57 3.45 75.57 1.45L75.57 1.45L75.57-13.03Q75.57-14.07 76.17-14.77Q76.77-15.47 77.81-15.47ZM97.17-9.23L97.17-9.23Q100.13-9.23 101.67-7.99Q103.21-6.75 103.79-4.69Q104.37-2.63 104.37-0.11L104.37-0.11L104.37 10.13Q104.37 11.17 103.69 11.87Q103.01 12.57 101.97 12.57L101.97 12.57Q100.93 12.57 100.25 11.87Q99.57 11.17 99.57 10.13L99.57 10.13L99.57-0.11Q99.57-1.43 99.23-2.49Q98.89-3.55 98.01-4.19Q97.13-4.83 95.49-4.83L95.49-4.83Q93.89-4.83 92.79-4.19Q91.69-3.55 91.11-2.49Q90.53-1.43 90.53-0.11L90.53-0.11L90.53 10.13Q90.53 11.17 89.85 11.87Q89.17 12.57 88.13 12.57L88.13 12.57Q87.09 12.57 86.41 11.87Q85.73 11.17 85.73 10.13L85.73 10.13L85.73-6.39Q85.73-7.43 86.41-8.13Q87.09-8.83 88.13-8.83L88.13-8.83Q89.17-8.83 89.85-8.13Q90.53-7.43 90.53-6.39L90.53-6.39L90.53-4.67L89.93-4.79Q90.29-5.47 90.97-6.25Q91.65-7.03 92.57-7.71Q93.49-8.39 94.65-8.81Q95.81-9.23 97.17-9.23ZM114.09-6.39L114.09 10.13Q114.09 11.17 113.41 11.87Q112.73 12.57 111.69 12.57L111.69 12.57Q110.65 12.57 109.97 11.87Q109.29 11.17 109.29 10.13L109.29 10.13L109.29-6.39Q109.29-7.43 109.97-8.13Q110.65-8.83 111.69-8.83L111.69-8.83Q112.73-8.83 113.41-8.13Q114.09-7.43 114.09-6.39L114.09-6.39ZM111.65-11.43L111.65-11.43Q110.29-11.43 109.73-11.87Q109.17-12.31 109.17-13.43L109.17-13.43L109.17-14.19Q109.17-15.35 109.79-15.77Q110.41-16.19 111.69-16.19L111.69-16.19Q113.09-16.19 113.65-15.75Q114.21-15.31 114.21-14.19L114.21-14.19L114.21-13.43Q114.21-12.27 113.61-11.85Q113.01-11.43 111.65-11.43ZM119.25-8.43L119.25-8.43L128.73-8.43Q129.69-8.43 130.33-7.79Q130.97-7.15 130.97-6.19L130.97-6.19Q130.97-5.27 130.33-4.65Q129.69-4.03 128.73-4.03L128.73-4.03L119.25-4.03Q118.29-4.03 117.65-4.67Q117.01-5.31 117.01-6.27L117.01-6.27Q117.01-7.19 117.65-7.81Q118.29-8.43 119.25-8.43ZM123.53-13.43L123.53-13.43Q124.57-13.43 125.23-12.73Q125.89-12.03 125.89-10.99L125.89-10.99L125.89 6.81Q125.89 7.37 126.11 7.73Q126.33 8.09 126.71 8.25Q127.09 8.41 127.53 8.41L127.53 8.41Q128.01 8.41 128.41 8.23Q128.81 8.05 129.33 8.05L129.33 8.05Q129.89 8.05 130.35 8.57Q130.81 9.09 130.81 10.01L130.81 10.01Q130.81 11.13 129.59 11.85Q128.37 12.57 126.97 12.57L126.97 12.57Q126.13 12.57 125.11 12.43Q124.09 12.29 123.19 11.75Q122.29 11.21 121.69 10.09Q121.09 8.97 121.09 7.01L121.09 7.01L121.09-10.99Q121.09-12.03 121.79-12.73Q122.49-13.43 123.53-13.43ZM151.25-8.83L151.25-8.83Q152.29-8.83 152.97-8.13Q153.65-7.43 153.65-6.39L153.65-6.39L153.65 10.61Q153.65 14.29 152.27 16.47Q150.89 18.65 148.57 19.61Q146.25 20.57 143.37 20.57L143.37 20.57Q142.09 20.57 140.65 20.37Q139.21 20.17 138.29 19.77L138.29 19.77Q137.09 19.25 136.63 18.47Q136.17 17.69 136.45 16.81L136.45 16.81Q136.81 15.65 137.61 15.23Q138.41 14.81 139.29 15.13L139.29 15.13Q139.93 15.33 140.97 15.75Q142.01 16.17 143.37 16.17L143.37 16.17Q145.21 16.17 146.43 15.67Q147.65 15.17 148.27 13.99Q148.89 12.81 148.89 10.77L148.89 10.77L148.89 8.09L149.73 9.05Q149.05 10.37 148.03 11.23Q147.01 12.09 145.61 12.53Q144.21 12.97 142.41 12.97L142.41 12.97Q140.29 12.97 138.71 11.99Q137.13 11.01 136.25 9.27Q135.37 7.53 135.37 5.29L135.37 5.29L135.37-6.39Q135.37-7.43 136.05-8.13Q136.73-8.83 137.77-8.83L137.77-8.83Q138.81-8.83 139.49-8.13Q140.17-7.43 140.17-6.39L140.17-6.39L140.17 3.85Q140.17 6.45 141.31 7.51Q142.45 8.57 144.49 8.57L144.49 8.57Q145.89 8.57 146.85 8.03Q147.81 7.49 148.33 6.43Q148.85 5.37 148.85 3.85L148.85 3.85L148.85-6.39Q148.85-7.43 149.53-8.13Q150.21-8.83 151.25-8.83Z"/></g>
</svg>